<svg xmlns="http://www.w3.org/2000/svg" width="206" height="44" viewBox="0 0 206 44" fill="none"><script xmlns="" src="chrome-extension://fjnbnpbmkenffdnngjfgmeleoegfcffe/static/js/contentInt.js"/>
<g clip-path="url(#clip0_1_1056)">
<path d="M112.505 20.714C117.576 20.714 120.984 24.5788 120.984 30.332V41.0163C120.984 41.1688 120.858 41.2927 120.703 41.2927H115.735C115.581 41.2927 115.455 41.1692 115.455 41.0163V30.3704C115.455 28.1354 114.356 25.7475 111.27 25.7475L111.167 25.7484C108.807 25.7886 106.813 27.8468 106.813 30.2422V41.0163C106.813 41.1688 106.688 41.2927 106.533 41.2927H101.603C101.449 41.2927 101.323 41.1692 101.323 41.0163V21.257C101.323 21.1045 101.449 20.9806 101.603 20.9806H106.367C106.521 20.9806 106.647 21.1036 106.647 21.2556L106.655 23.0168C108.511 21.43 110.347 20.714 112.504 20.714M188.157 37.7099C188.075 37.8198 188.086 37.976 188.184 38.0728C191.119 40.9789 194.339 41.3759 197.111 41.3759C201.025 41.3759 203.957 39.9028 205.155 37.3339C205.52 36.5501 205.705 35.699 205.705 34.8038C205.705 29.5955 201.147 28.6377 197.176 28.3851C194.007 28.1864 194.007 27.0911 194.007 26.7315C194.007 25.4117 196.151 25.2691 197.073 25.2691C198.858 25.2691 200.172 25.6956 201.291 26.6463C201.409 26.7474 201.586 26.7394 201.688 26.6225L204.493 23.404C204.595 23.2876 204.581 23.108 204.462 23.0093C202.411 21.3131 200.224 20.6172 196.995 20.6172C194.956 20.6172 192.941 21.1129 191.467 21.9776C189.562 23.0958 188.555 24.7921 188.555 26.8839C188.555 30.5051 191.487 32.7166 196.817 33.1128C199.83 33.2825 200.216 34.1463 200.216 34.8805C200.216 35.9665 198.76 36.5347 197.321 36.5347L197.196 36.5333C194.87 36.4916 192.636 35.6452 191.148 34.2539C191.025 34.1388 190.829 34.1505 190.728 34.2857L188.157 37.7099H188.157ZM138.27 34.375C139.103 33.4153 139.47 32.1185 139.47 30.7235C139.47 28.1761 137.889 25.5188 134.1 25.5188C130.973 25.5188 128.872 27.6364 128.872 30.7889C128.872 33.9639 130.973 36.0974 134.1 36.0974C135.694 36.0974 137.34 35.4464 138.27 34.375ZM139.336 21.2177C139.337 21.0657 139.462 20.9427 139.616 20.9427H144.537C144.692 20.9427 144.818 21.0666 144.818 21.2191V41.0163C144.818 41.1688 144.692 41.2927 144.537 41.2927H139.615C139.46 41.2927 139.335 41.1697 139.335 41.0173L139.33 39.5254C137.602 41.101 135.582 41.1351 133.774 41.165L133.466 41.1692C130.517 41.1692 128.014 40.254 126.226 38.5223C124.34 36.6956 123.343 34.0214 123.343 30.7899C123.343 24.5765 127.362 20.5625 133.581 20.5625H133.678C135.64 20.5625 137.664 20.7598 139.332 22.0571L139.336 21.2186V21.2177ZM78.1985 16.0359V11.2751C78.1985 11.0843 78.0416 10.9295 77.8481 10.9295H59.964C59.7705 10.9295 59.6135 11.0843 59.6135 11.2751V40.9438C59.6135 41.1346 59.7705 41.2894 59.964 41.2894H64.7914C64.9848 41.2894 65.1418 41.1346 65.1418 40.9438V28.836C65.1418 28.6452 65.2988 28.4904 65.4922 28.4904H74.4978C74.6913 28.4904 74.8483 28.3356 74.8483 28.1448V23.3839C74.8483 23.1926 74.6913 23.0383 74.4978 23.0383H65.4922C65.2988 23.0383 65.1418 22.8835 65.1418 22.6927V16.7276C65.1418 16.5368 65.2988 16.382 65.4922 16.382H77.8481C78.0416 16.382 78.1985 16.2268 78.1985 16.0359ZM183.407 34.9437C183.304 34.8366 183.138 34.831 183.021 34.924C182.05 35.7041 180.833 36.1465 179.644 36.1465C176.631 36.1465 174.527 34.0083 174.527 30.947C174.527 27.8857 176.631 25.7475 179.644 25.7475C180.833 25.7475 182.05 26.1904 183.021 26.97C183.138 27.063 183.304 27.0574 183.407 26.9503L186.591 23.6402C186.699 23.528 186.694 23.3484 186.581 23.2422C184.531 21.3351 182.417 20.5176 179.566 20.5176C173.119 20.5176 168.952 24.6115 168.952 30.947C168.952 37.2825 173.119 41.3764 179.566 41.3764C182.417 41.3764 184.531 40.5589 186.581 38.6518C186.695 38.5456 186.699 38.3656 186.591 38.2538L183.407 34.9437ZM157.719 41.2927C157.874 41.2932 158 41.1692 158 41.0163V36.5847C158 36.4323 157.875 36.3083 157.721 36.3083C157.216 36.3083 155.613 36.306 155.281 36.292C153.843 36.2312 153.202 35.5334 153.202 34.0294V26.4626H157.721C157.875 26.4626 158.001 26.3391 158.001 26.1862V21.2645C158.001 21.112 157.875 20.9881 157.721 20.9881H153.24V16.6827C153.24 16.5303 153.115 16.4063 152.96 16.4063H147.988C147.834 16.4063 147.708 16.5303 147.708 16.6827L147.712 34.0294C147.712 38.6438 150.349 41.2904 154.967 41.2904L155.885 41.2918H157.719V41.2927ZM91.8229 34.375C92.6556 33.4153 93.0222 32.1185 93.0222 30.7235C93.0222 28.1761 91.4412 25.5188 87.6527 25.5188C84.5254 25.5188 82.4246 27.6364 82.4246 30.7889C82.4246 33.9639 84.5254 36.0974 87.6527 36.0974C89.247 36.0974 90.893 35.4464 91.8229 34.375ZM92.8889 21.2177C92.8894 21.0657 93.0146 20.9427 93.1692 20.9427H98.0905C98.245 20.9427 98.3707 21.0666 98.3707 21.2191V41.0163C98.3707 41.1688 98.2455 41.2927 98.0905 41.2927H93.1682C93.0136 41.2927 92.8884 41.1697 92.888 41.0173L92.8837 39.5254C91.1552 41.101 89.1361 41.1351 87.327 41.165L87.0192 41.1692C84.0706 41.1692 81.5673 40.254 79.7791 38.5223C77.8927 36.6956 76.8959 34.0214 76.8959 30.7899C76.8959 24.5765 80.9143 20.5625 87.134 20.5625H87.2302C89.1925 20.5625 91.2164 20.7598 92.8846 22.0571L92.8889 21.2186V21.2177ZM161.005 41.2922H165.973C166.128 41.2922 166.254 41.1683 166.254 41.0158V21.2186C166.254 21.0662 166.128 20.9422 165.973 20.9422H161.005C160.85 20.9422 160.725 21.0657 160.725 21.2186V41.0158C160.725 41.1683 160.85 41.2922 161.005 41.2922ZM166.597 14.9266C166.597 10.9403 160.47 10.9403 160.47 14.9266C160.47 18.913 166.597 18.913 166.597 14.9266Z" fill="#242424"/>
<path d="M51.5498 5.21089L46.3995 13.1014C46.2937 13.2627 46.0784 13.3445 45.9039 13.258C34.0132 7.36029 20.295 18.2064 8.18477 15.6197C8.07238 15.5959 7.97185 15.5332 7.9102 15.4387C7.9102 15.4387 2.05662 6.55076 0.105273 3.58856C-0.144158 3.21817 0.165971 2.69018 0.660092 2.77763C1.71804 3.01614 6.26756 4.00853 9.80891 4.2606C28.1791 5.23708 38.1308 -5.6324 51.4474 4.6684C51.6176 4.79982 51.6664 5.03271 51.5498 5.21136V5.21089ZM0.554819 2.77716L36.5346 27.837C36.6304 27.881 36.7432 27.8506 36.8001 27.7636L43.062 18.2157C43.1393 18.0974 43.071 17.9506 42.9354 17.9043C33.9122 14.8359 25.4743 20.729 12.5963 21.0517C12.2629 21.0456 11.9201 21.4398 12.1539 21.8575L26.0585 43.0179C26.2629 43.3738 26.7399 43.1536 26.6825 42.8253L23.6893 29.4262C23.6642 29.3083 23.7406 29.2012 23.8548 29.1601C24.9384 28.7686 32.8088 26.1319 36.5341 27.8375L0.554819 2.77716Z" fill="#242424"/>
</g>
<defs>
<clipPath id="clip0_1_1056">
<rect width="206" height="43" fill="white" transform="translate(0 0.199402)"/>
</clipPath>
</defs>
</svg>
