<svg data-name="Layer 1" xmlns="http://www.w3.org/2000/svg" viewBox="0 0 1546.81 235.4" data-hc-name="global-nav-main-logo" class="_HouseCanaryLogoFull_1ujtj_43" height="30px"><path d="M4.19 170.81 89.69 113l85.5 57.81-9 9.19-76.5-46.17L13.19 180Z" fill-rule="evenodd" stroke="#20203f" stroke-width="5.4" fill="#20203f"></path><path d="M331.79 43.4V183h-28v-59.4h-59.8V183h-28V43.4h28v57.4h59.8V43.4Zm69.15 141.4a59 59 0 0 1-28.8-7 52.49 52.49 0 0 1-20.2-20.2q-7.2-13-7.2-30t7.4-30a52.11 52.11 0 0 1 20.6-20 62 62 0 0 1 58 0 50.72 50.72 0 0 1 20.4 20q7.6 13 7.6 30t-7.8 30a53.14 53.14 0 0 1-20.75 20.2 60.57 60.57 0 0 1-29.25 7Zm0-24.4a29.18 29.18 0 0 0 14.2-3.6 27.41 27.41 0 0 0 10.8-11.2q4-7.4 4-18 0-15.8-8.4-24.2a28 28 0 0 0-40.4 0q-8 8.4-8 24.2t7.8 24.4a26.47 26.47 0 0 0 20 8.4Zm175.33-88.2V183h-28.2v-14a37.63 37.63 0 0 1-14.2 11.4 44 44 0 0 1-18.8 4 47.65 47.65 0 0 1-23-5.4 40.17 40.17 0 0 1-15.8-16.2q-5.59-10.8-5.6-25.6v-65h28v61q0 13.2 6.6 20.4 6.6 7 18 7 11.59 0 18.2-7 6.6-7.2 6.6-20.4v-61Zm62.42 112.6a59.46 59.46 0 0 1-24.4-4.8 44.75 44.75 0 0 1-17.2-13.4 34.12 34.12 0 0 1-6.8-18.6h28.2a15.45 15.45 0 0 0 6.2 10.6 22.33 22.33 0 0 0 13.8 4.2q8 0 12.4-3.2a9.63 9.63 0 0 0 4.6-8.2q0-5.4-5.6-8-5.4-2.81-17.4-6a153.45 153.45 0 0 1-20.4-6.2 36.25 36.25 0 0 1-13.6-9.8q-5.59-6.6-5.6-17.8a29.09 29.09 0 0 1 5.2-16.8 36.37 36.37 0 0 1 15.2-12q10-4.39 23.4-4.4 19.8 0 31.6 10 11.8 9.8 13 26.6h-26.8a14.06 14.06 0 0 0-5.6-10.4q-4.8-4-13-4-7.61 0-11.8 2.8a9 9 0 0 0-4 7.8q0 5.6 5.6 8.6 5.6 2.8 17.4 5.8a148.18 148.18 0 0 1 19.8 6.2 33.77 33.77 0 0 1 13.4 10q5.8 6.6 6 17.6a29 29 0 0 1-5.4 17.2q-5.21 7.6-15.2 12-9.79 4.2-23 4.2Zm168.72-59.6a66.45 66.45 0 0 1-.8 10.8h-81q1 12 8.4 18.8a25.91 25.91 0 0 0 18.2 6.8q15.6 0 22.2-13.4h30.2a51 51 0 0 1-18.42 26.4q-13.6 10.2-33.4 10.2a59 59 0 0 1-28.8-7 51.5 51.5 0 0 1-19.8-20.2q-7-13-7-30 0-17.2 7-30.2a48.8 48.8 0 0 1 19.6-20q12.6-7 29-7a57.73 57.73 0 0 1 28.2 6.8 46.93 46.93 0 0 1 19.4 19.4q7.01 12.4 7.02 28.6Zm-29-8q-.21-10.8-7.8-17.2a27.39 27.39 0 0 0-18.6-6.6 25.52 25.52 0 0 0-17.6 6.4q-7 6.2-8.6 17.4Zm41.78-4.2q0-20.59 9.2-36.8a66.45 66.45 0 0 1 25.41-25.4 72 72 0 0 1 36.19-9.2q23.41 0 41 12t24.61 33.2h-32.23a33.18 33.18 0 0 0-13.59-15 39.15 39.15 0 0 0-20-5 41.31 41.31 0 0 0-21.81 5.8 39.21 39.21 0 0 0-14.8 16q-5.19 10.4-5.2 24.4a54.83 54.83 0 0 0 5.2 24.4 40.66 40.66 0 0 0 14.8 16.2 42.51 42.51 0 0 0 21.81 5.6 39.15 39.15 0 0 0 20-5 34.42 34.42 0 0 0 13.59-15.2h32.21q-7 21.41-24.61 33.4-17.4 11.81-41 11.8a73.24 73.24 0 0 1-36.19-9 68.29 68.29 0 0 1-25.41-25.4q-9.18-16.2-9.18-36.8Zm145.51 14.2q0-16.8 6.6-29.8a50 50 0 0 1 18.2-20 49 49 0 0 1 25.8-7q12.4 0 21.6 5a43.64 43.64 0 0 1 15 12.6V72.2h28.2V183h-28.2v-16.2a42.34 42.34 0 0 1-15 13 45.75 45.75 0 0 1-21.8 5 47.61 47.61 0 0 1-25.6-7.2 51.48 51.48 0 0 1-18.2-20.2q-6.62-13.2-6.62-30.2Zm87.2.4q0-10.2-4-17.4a27.28 27.28 0 0 0-10.8-11.2 28.91 28.91 0 0 0-29-.2 29.14 29.14 0 0 0-10.8 11.2 34.85 34.85 0 0 0-4 17.2 37.2 37.2 0 0 0 4 17.6 30.76 30.76 0 0 0 10.8 11.4 28 28 0 0 0 14.4 4 29.48 29.48 0 0 0 14.6-3.8 29 29 0 0 0 10.8-11.2 36.45 36.45 0 0 0 3.98-17.6Zm109.29-57q19.8 0 32 12.6 12.2 12.4 12.2 34.8v65h-28v-61.2q0-13.2-6.6-20.2-6.6-7.2-18-7.2-11.6 0-18.4 7.2-6.6 7-6.6 20.2V183h-28V72.2h28V86a38 38 0 0 1 14.2-11.2 44 44 0 0 1 19.2-4.2Zm56 56.6q0-16.8 6.6-29.8a50 50 0 0 1 18.2-20 48.92 48.92 0 0 1 25.8-7q12.39 0 21.6 5a43.83 43.83 0 0 1 15 12.6V72.2h28.2V183h-28.2v-16.2a42.34 42.34 0 0 1-15 13 45.8 45.8 0 0 1-21.8 5 47.56 47.56 0 0 1-25.6-7.2 51.48 51.48 0 0 1-18.2-20.2q-6.55-13.2-6.55-30.2Zm87.2.4q0-10.2-4-17.4a27.41 27.41 0 0 0-10.8-11.2 28.91 28.91 0 0 0-29-.2 29.14 29.14 0 0 0-10.8 11.2 34.85 34.85 0 0 0-4 17.2 37.2 37.2 0 0 0 4 17.6 30.76 30.76 0 0 0 10.8 11.4 27.91 27.91 0 0 0 14.4 4 29.51 29.51 0 0 0 14.6-3.8 29.17 29.17 0 0 0 10.8-11.2 36.57 36.57 0 0 0 4.05-17.6Zm75.94-38.2a38.22 38.22 0 0 1 34-18.8V100h-7.4q-13.2 0-20 6.2-6.6 6.19-6.6 21.6V183h-28V72.2h28Zm165.43-17.2-68.57 163.2h-29.8l24-55.2-44.4-108h31.4l28.6 77.4 29-77.4Z" fill="#20203f"></path><path d="M138.71 52c0-5.49 3.59-24.13 3.59-24.13 4.33-1.39 10.69-6.76 11.85-7.58.26-.18-.72-1-2.26-2.08a40.3 40.3 0 0 0-8.39-4.68 20.42 20.42 0 0 0-1.2-2.75 19.76 19.76 0 0 0-2.51-3.68A20.38 20.38 0 0 0 124.28 0a21.38 21.38 0 0 0-3.33.27 20.43 20.43 0 0 0-10.69 5.27l-.78.78a37 37 0 0 0-10.26 21c-.26.18-14.76 11.25-21.18 17.6a158.12 158.12 0 0 0-18.93 22.63 154.64 154.64 0 0 0-13.07 22.87l38.5-25.22a44.81 44.81 0 0 0 7.5-6.26 44.06 44.06 0 0 0 9.46-15.21 36 36 0 0 1-16.08 28.53l-74.23 48.61A89.45 89.45 0 0 0 16.75 131c1.75-1.9 28.1-16.12 29.29-16.73 10.44-5.35 12.53-6.49 23.63-6.48h12.67a57 57 0 0 0 7.08-.44l1.49-.2c27.06-4.08 47.8-27.21 47.8-55.15Z" fill="#ffd532" fill-rule="evenodd"></path></svg>
