<svg width="585" height="177" viewBox="0 0 585 177" fill="none" xmlns="http://www.w3.org/2000/svg">
<path d="M66.9428 135.663C65.7853 130.569 59.0311 100.838 54.2 81.6047C61.5654 76.9251 65.0946 68.9838 65.0946 58.3291V37.2953C65.0946 27.4833 63.5081 20.1224 59.8407 15.6537C55.4795 8.28498 46.0684 5.05566 32.7161 5.05566H9.50788C8.4328 5.05566 7.26697 5.33908 6.38509 6.23656C5.50928 7.12786 5.23486 8.29872 5.23486 9.38628V136.783C5.23486 137.86 5.52127 139.014 6.40069 139.889C7.27855 140.763 8.43301 141.046 9.50788 141.046H29.4578C30.5327 141.046 31.6871 140.763 32.565 139.889C33.4444 139.014 33.7308 137.86 33.7308 136.783V111.37C33.9619 112.474 34.1964 113.593 34.4317 114.715C35.5269 119.934 36.641 125.212 37.5182 129.296C37.9566 131.337 38.3368 133.084 38.6262 134.378C38.8989 135.598 39.1231 136.567 39.2375 136.91C39.2745 137.021 39.3165 137.152 39.3611 137.292C39.4523 137.576 39.5543 137.894 39.6462 138.144C39.7983 138.558 40.0213 139.081 40.4025 139.565C41.3121 140.718 42.6188 141.056 44.0324 141.056H44.0456H44.0591H44.0729H44.0871H44.1016H44.1164H44.1316H44.1471H44.163H44.1791H44.1956H44.2125H44.2296H44.2471H44.2649H44.283H44.3015H44.3203H44.3393H44.3587H44.3785H44.3985H44.4188H44.4395H44.4605H44.4817H44.5033H44.5252H44.5474H44.5699H44.5926H44.6157H44.6391H44.6628H44.6868H44.711H44.7356H44.7604H44.7856H44.811H44.8367H44.8627H44.889H44.9155H44.9424H44.9695H44.9969H45.0246H45.0525H45.0807H45.1092H45.138H45.167H45.1963H45.2259H45.2557H45.2858H45.3161H45.3468H45.3776H45.4087H45.4401H45.4718H45.5037H45.5358H45.5682H45.6008H45.6337H45.6669H45.7002H45.7339H45.7677H45.8018H45.8362H45.8707H45.9055H45.9406H45.9759H46.0114H46.0471H46.0831H46.1193H46.1557H46.1923H46.2292H46.2663H46.3036H46.3411H46.3789H46.4168H46.455H46.4934H46.532H46.5708H46.6098H46.649H46.6884H46.7281H46.7679H46.8079H46.8482H46.8886H46.9292H46.9701H47.0111H47.0523H47.0937H47.1353H47.177H47.219H47.2612H47.3035H47.346H47.3887H47.4316H47.4746H47.5178H47.5612H47.6048H47.6486H47.6925H47.7366H47.7808H47.8253H47.8698H47.9146H47.9595H48.0046H48.0498H48.0952H48.1408H48.1865H48.2323H48.2783H48.3245H48.3708H48.4172H48.4638H48.5106H48.5575H48.6045H48.6517H48.699H48.7464H48.794H48.8417H48.8896H48.9376H48.9857H49.0339H49.0823H49.1308H49.1794H49.2281H49.277H49.326H49.3751H49.4243H49.4737H49.5231H49.5727H49.6223H49.6721H49.722H49.772H49.8221H49.8723H49.9227H49.9731H50.0236H50.0742H50.1249H50.1757H50.2266H50.2776H50.3287H50.3799H50.4312H50.4825H50.534H50.5855H50.6371H50.6888H50.7405H50.7924H50.8443H50.8963H50.9484H51.0005H51.0527H51.105H51.1574H51.2098H51.2623H51.3148H51.3674H51.4201H51.4728H51.5256H51.5785H51.6314H51.6843H51.7374H51.7904H51.8435H51.8967H51.9499H52.0031H52.0564H52.1098H52.1631H52.2166H52.27H52.3235H52.377H52.4306H52.4842H52.5378H52.5915H52.6452H52.6989H52.7526H52.8064H52.8601H52.9139H52.9678H53.0216H53.0754H53.1293H53.1832H53.2371H53.291H53.3449H53.3988H53.4528H53.5067H53.5606H53.6146H53.6685H53.7224H53.7764H53.8303H53.8842H53.9382H53.9921H54.046H54.0999H54.1538H54.2076H54.2615H54.3153H54.3691H54.4229H54.4767H54.5304H54.5842H54.6379H54.6916H54.7452H54.7988H54.8524H54.906H54.9595H55.013H55.0664H55.1198H55.1732H55.2265H55.2798H55.3331H55.3863H55.4394H55.4925H55.5456H55.5986H55.6515H55.7044H55.7573H55.81H55.8628H55.9154H55.968H56.0206H56.073H56.1255H56.1778H56.2301H56.2823H56.3344H56.3865H56.4384H56.4904H56.5422H56.5939H56.6456H56.6972H56.7487H56.8001H56.8515H56.9027H56.9539H57.005H57.0559H57.1068H57.1576H57.2083H57.2589H57.3094H57.3598H57.4101H57.4603H57.5104H57.5604H57.6103H57.66H57.7097H57.7592H57.8087H57.858H57.9072H57.9563H58.0052H58.0541H58.1028H58.1514H58.1999H58.2482H58.2964H58.3445H58.3925H58.4403H58.488H58.5356H58.583H58.6303H58.6774H58.7244H58.7713H58.818H58.8646H58.911H58.9573H59.0035H59.0494H59.0953H59.1409H59.1865H59.2318H59.277H59.3221H59.367H59.4117H59.4563H59.5006H59.5449H59.5889H59.6328H59.6765H59.7201H59.7635H59.8067H59.8497H59.8925H59.9352H59.9777H60.02H60.0621H60.104H60.1458H60.1873H60.2287H60.2699H60.3109H60.3516H60.3922H60.4326H60.4728H60.5128H60.5526H60.5922H60.6316H60.6708H60.7098H60.7486H60.7871H60.8255H60.8636H60.9015H60.9392H60.9767H61.014H61.051H61.0879H61.1245H61.1609H61.197H61.233H61.2687H61.3041H61.3394H61.3744H61.4091H61.4437H61.478H61.512H61.5459H61.5794H61.6128H61.6459H61.6787H61.7113H61.7437H61.7758H61.8076H61.8392H61.8706H61.9016H61.9325H61.963H61.9933H62.0234H62.0532H62.0827H62.1119H62.1409H62.1697H62.1981H62.2263H62.2542H62.2818H62.3091H62.3362H62.363H62.3895H62.4158H62.4417H62.4674H62.4927H62.5178H62.5426H62.5671H62.5914H62.6153H62.6389H62.6623H62.6853H62.708H62.7305H62.7526H62.7744H62.7959H62.8172H62.8381H62.8587H62.879H62.8989H62.9186H62.938H62.957H62.9757H62.9941H63.0122H63.0299H63.0474H63.0645H63.0812H63.0977H63.1138H63.1296H63.1451H63.1602H63.175H63.1894H63.2035H63.2173H63.2307H63.2438H63.2566H63.269H63.281H63.2927H63.3041H63.3151H63.3258H63.3361H63.346H63.3556H63.3648H63.3737H63.3822H63.3903H63.3981H63.4055H63.4126H63.4193H63.4256H63.4315H63.4371H63.4423H63.4471H63.4515H63.4556H63.4593H63.4626H63.4655H63.468H63.4702H63.4719H63.4733H63.4743H63.4749C63.475 141.056 63.4751 141.056 63.4751 139.056V141.056C64.4269 141.056 65.6018 140.776 66.4263 139.801C67.2798 138.792 67.3644 137.51 67.1026 136.366C67.0799 136.267 67.0257 136.028 66.9428 135.663ZM32.0919 62.8257V31.8083H34.9891C36.1925 31.8083 36.8423 32.1967 37.284 32.8241C37.8158 33.5795 38.2376 34.9639 38.2376 37.2953V57.3386C38.2376 59.5172 37.673 60.7737 36.8927 61.5129C36.0918 62.2717 34.7069 62.8257 32.3552 62.8257H32.0919Z" fill="white" stroke="black" stroke-width="4"/>
<path d="M187.924 55.6239H188.493L188.976 55.325C189.477 55.0153 189.939 54.6885 190.301 54.3422C190.482 54.1684 190.689 53.942 190.861 53.6624C191.027 53.3912 191.235 52.9495 191.235 52.3845V34.585C191.235 24.4703 188.837 16.505 183.688 11.0709C178.52 5.61663 170.907 3.05566 161.235 3.05566C157.158 3.05566 153.249 3.47931 149.602 4.42769L149.518 4.44955L149.436 4.47862C143.486 6.59166 138.887 9.87197 135.794 14.401C132.705 18.9227 131.235 24.5174 131.235 31.0621V116.049C131.235 120.525 132.121 124.933 133.962 129.188L133.972 129.211L133.982 129.234C136.253 134.139 139.626 137.886 144.101 140.385C148.552 142.871 153.974 144.056 160.267 144.056H161.861C171.336 144.056 178.797 141.487 183.858 136.024C188.893 130.589 191.235 122.631 191.235 112.526V94.8049V94.2344L190.934 93.7498C190.626 93.2545 190.289 92.7751 189.912 92.3986C189.578 92.0653 188.901 91.4972 187.924 91.4972H166.633H166.026L165.521 91.835C165.067 92.1387 164.616 92.4745 164.26 92.8447C163.951 93.1657 163.391 93.8382 163.391 94.8049V110.321C163.391 112.874 163.066 114.49 162.62 115.397C162.411 115.824 162.212 116.018 162.079 116.108C161.96 116.189 161.799 116.255 161.518 116.255H160.893C160.2 116.255 159.917 116.043 159.7 115.714C159.385 115.237 159.088 114.271 159.088 112.526V34.585C159.088 32.829 159.371 31.837 159.674 31.3439C159.88 31.0079 160.101 30.8567 160.619 30.8567H161.518C161.799 30.8567 161.96 30.9222 162.079 31.0029C162.212 31.0936 162.411 31.2877 162.62 31.7142C163.066 32.6215 163.391 34.2371 163.391 36.7904V52.3845V52.9207L163.66 53.385C163.942 53.8742 164.27 54.353 164.655 54.7352C164.996 55.0731 165.671 55.6239 166.633 55.6239H187.924Z" fill="white" stroke="black" stroke-width="4"/>
<path d="M262.122 10.0477L262.235 9.72658V9.38628C262.235 8.29686 261.959 7.12498 261.08 6.23391C260.196 5.33799 259.029 5.05566 257.953 5.05566H235.207C234.369 5.05566 233.643 5.28486 233.055 5.59999C232.84 5.70186 232.685 5.82083 232.595 5.89678C232.392 6.0696 232.263 6.2465 232.199 6.34091C232.066 6.5363 231.977 6.73127 231.926 6.84858C231.814 7.10617 231.706 7.42279 231.604 7.74601C231.395 8.41161 231.134 9.35935 230.827 10.5246C230.496 11.7816 230.096 13.3494 229.632 15.1688C229.237 16.7201 228.794 18.4544 228.308 20.3349C226.881 25.855 225.052 32.7309 222.822 40.3088V8.40548V7.89888L222.581 7.45338C222.289 6.91434 221.954 6.39993 221.558 5.99334C221.198 5.62443 220.514 5.06538 219.54 5.06538H198.516C197.289 5.06538 196.072 5.49832 195.232 6.58455C194.464 7.57735 194.235 8.83487 194.235 10.0369V136.162C194.235 137.34 194.47 138.581 195.244 139.561C196.083 140.625 197.291 141.056 198.516 141.056V139.056C198.516 141.056 198.516 141.056 198.517 141.056H198.517H198.518H198.52H198.521H198.523H198.526H198.529H198.532H198.536H198.54H198.545H198.549H198.555H198.56H198.566H198.573H198.579H198.586H198.594H198.602H198.61H198.619H198.627H198.637H198.646H198.656H198.667H198.678H198.689H198.7H198.712H198.724H198.737H198.749H198.763H198.776H198.79H198.804H198.819H198.834H198.849H198.864H198.88H198.897H198.913H198.93H198.947H198.965H198.983H199.001H199.019H199.038H199.057H199.077H199.097H199.117H199.137H199.158H199.179H199.2H199.222H199.244H199.266H199.289H199.312H199.335H199.358H199.382H199.406H199.431H199.455H199.48H199.506H199.531H199.557H199.583H199.609H199.636H199.663H199.69H199.718H199.746H199.774H199.802H199.831H199.86H199.889H199.918H199.948H199.978H200.008H200.038H200.069H200.1H200.131H200.163H200.195H200.227H200.259H200.292H200.324H200.357H200.391H200.424H200.458H200.492H200.526H200.561H200.595H200.63H200.665H200.701H200.737H200.772H200.808H200.845H200.881H200.918H200.955H200.992H201.03H201.067H201.105H201.143H201.182H201.22H201.259H201.298H201.337H201.376H201.416H201.456H201.496H201.536H201.576H201.617H201.658H201.699H201.74H201.781H201.823H201.864H201.906H201.948H201.991H202.033H202.076H202.118H202.161H202.205H202.248H202.291H202.335H202.379H202.423H202.467H202.512H202.556H202.601H202.646H202.691H202.736H202.781H202.827H202.872H202.918H202.964H203.01H203.056H203.103H203.149H203.196H203.243H203.29H203.337H203.384H203.432H203.479H203.527H203.575H203.623H203.671H203.719H203.767H203.816H203.864H203.913H203.962H204.01H204.06H204.109H204.158H204.207H204.257H204.306H204.356H204.406H204.456H204.506H204.556H204.606H204.657H204.707H204.758H204.808H204.859H204.91H204.961H205.012H205.063H205.114H205.165H205.217H205.268H205.319H205.371H205.423H205.474H205.526H205.578H205.63H205.682H205.734H205.786H205.839H205.891H205.943H205.996H206.048H206.101H206.153H206.206H206.259H206.312H206.364H206.417H206.47H206.523H206.576H206.629H206.682H206.736H206.789H206.842H206.895H206.948H207.002H207.055H207.109H207.162H207.215H207.269H207.322H207.376H207.429H207.483H207.537H207.59H207.644H207.697H207.751H207.805H207.858H207.912H207.966H208.02H208.073H208.127H208.181H208.234H208.288H208.342H208.395H208.449H208.503H208.557H208.61H208.664H208.718H208.771H208.825H208.878H208.932H208.985H209.039H209.093H209.146H209.199H209.253H209.306H209.36H209.413H209.466H209.52H209.573H209.626H209.679H209.732H209.785H209.838H209.891H209.944H209.997H210.05H210.103H210.156H210.208H210.261H210.313H210.366H210.418H210.471H210.523H210.575H210.628H210.68H210.732H210.784H210.836H210.887H210.939H210.991H211.043H211.094H211.146H211.197H211.248H211.299H211.351H211.402H211.452H211.503H211.554H211.605H211.655H211.706H211.756H211.806H211.857H211.907H211.957H212.006H212.056H212.106H212.155H212.205H212.254H212.303H212.352H212.401H212.45H212.499H212.548H212.596H212.644H212.693H212.741H212.789H212.836H212.884H212.932H212.979H213.026H213.074H213.121H213.167H213.214H213.261H213.307H213.354H213.4H213.446H213.492H213.537H213.583H213.628H213.673H213.718H213.763H213.808H213.853H213.897H213.941H213.985H214.029H214.073H214.117H214.16H214.203H214.246H214.289H214.332H214.374H214.417H214.459H214.501H214.543H214.584H214.626H214.667H214.708H214.749H214.789H214.83H214.87H214.91H214.95H214.99H215.029H215.068H215.107H215.146H215.185H215.223H215.261H215.299H215.337H215.374H215.412H215.449H215.486H215.522H215.559H215.595H215.631H215.666H215.702H215.737H215.772H215.807H215.842H215.876H215.91H215.944H215.977H216.011H216.044H216.077H216.109H216.142H216.174H216.206H216.237H216.268H216.3H216.33H216.361H216.391H216.421H216.451H216.481H216.51H216.539H216.568H216.596H216.624H216.652H216.68H216.707H216.734H216.761H216.787H216.813H216.839H216.865H216.89H216.915H216.94H216.965H216.989H217.013H217.036H217.06H217.083H217.105H217.128H217.15H217.171H217.193H217.214H217.235H217.255H217.276H217.296H217.315H217.334H217.353H217.372H217.39H217.408H217.426H217.443H217.46H217.477H217.493H217.509H217.525H217.54H217.555H217.57H217.584H217.598H217.612H217.625H217.638H217.651H217.663H217.675H217.686H217.698H217.709C218.656 141.056 220.058 140.978 221.186 140.084C222.426 139.102 222.813 137.592 222.813 135.997V135.981V135.964V135.946V135.928V135.909V135.889V135.868V135.846V135.824V135.8V135.776V135.751V135.725V135.699V135.671V135.643V135.614V135.584V135.553V135.522V135.49V135.457V135.423V135.389V135.354V135.318V135.281V135.243V135.205V135.166V135.126V135.086V135.045V135.003V134.96V134.917V134.872V134.828V134.782V134.736V134.689V134.641V134.593V134.543V134.494V134.443V134.392V134.34V134.287V134.234V134.18V134.126V134.07V134.014V133.958V133.901V133.843V133.784V133.725V133.665V133.604V133.543V133.482V133.419V133.356V133.292V133.228V133.163V133.098V133.032V132.965V132.897V132.829V132.761V132.692V132.622V132.552V132.481V132.409V132.337V132.265V132.191V132.118V132.043V131.968V131.893V131.817V131.74V131.663V131.586V131.507V131.429V131.35V131.27V131.189V131.109V131.027V130.945V130.863V130.78V130.697V130.613V130.528V130.444V130.358V130.272V130.186V130.099V130.012V129.924V129.836V129.747V129.658V129.568V129.478V129.388V129.297V129.205V129.113V129.021V128.928V128.835V128.741V128.647V128.553V128.458V128.363V128.267V128.171V128.074V127.977V127.88V127.782V127.684V127.586V127.487V127.387V127.288V127.188V127.087V126.986V126.885V126.784V126.682V126.58V126.477V126.374V126.271V126.167V126.063V125.959V125.855V125.75V125.644V125.539V125.433V125.327V125.22V125.113V125.006V124.899V124.791V124.683V124.575V124.466V124.358V124.248V124.139V124.029V123.919V123.809V123.699V123.588V123.477V123.366V123.254V123.142V123.03V122.918V122.806V122.693V122.58V122.467V122.354V122.24V122.126V122.012V121.898V121.784V121.669V121.554V121.44V121.324V121.209V121.093V120.978V120.862V120.746V120.63V120.513V120.397V120.28V120.163V120.046V119.929V119.811V119.694V119.576V119.459V119.341V119.223V119.105V118.986V118.868V118.75V118.631V118.512V118.393V118.275V118.156V118.037V117.917V117.798V117.679V117.559V117.44V117.32V117.201V117.081V116.961V116.841V116.721V116.601V116.482V116.361V116.241V116.121V116.001V115.881V115.761V115.641V115.52V115.4V115.28V115.159V115.039V114.919V114.799V114.678V114.558V114.438V114.317V114.197V114.077V113.957V113.837V113.716V113.596V113.476V113.356V113.236V113.116V112.996V112.876V112.757V112.637V112.517V112.398V112.278V112.159V112.039V111.92V111.801V111.682V111.563V111.444V111.325V111.206V111.087V110.969V110.851V110.732V110.614V110.496V110.378V110.26V110.143V110.025V109.908V109.791V109.674V109.557V109.44V109.323V109.207V109.09V108.974V108.858V108.743V108.627V108.511V108.396V108.281V108.166V108.052V107.937V107.823V107.709V107.595V107.481V107.368V107.255V107.142V107.029V106.916V106.804V106.692V106.58V106.469V106.431C225.976 117.929 228.824 129.81 229.915 134.361C230.089 135.087 230.218 135.626 230.297 135.948L230.297 135.949C230.664 137.443 231.156 139.01 232.467 139.998C233.75 140.964 235.403 141.056 236.989 141.056H257.944C259.028 141.056 260.339 140.741 261.249 139.679C262.207 138.56 262.303 137.107 261.943 135.747C261.688 134.785 257.208 117.902 252.792 101.26L246.752 78.4976L244.773 71.0393L244.219 68.9537L244.168 68.7605L244.175 68.7363C244.285 68.3679 244.446 67.8263 244.653 67.1337C245.066 65.7484 245.659 63.759 246.382 61.3424C247.827 56.5091 249.788 49.9679 251.851 43.1355C255.986 29.4409 260.506 14.661 262.122 10.0477Z" fill="white" stroke="black" stroke-width="4"/>
<path d="M316.878 33.4318H317.376L317.816 33.1986C318.359 32.9103 318.878 32.5793 319.288 32.1872C319.657 31.8349 320.235 31.1488 320.235 30.1595V8.39586V7.82779L319.936 7.34453C319.618 6.82917 319.269 6.3377 318.877 5.95321C318.527 5.60921 317.847 5.05566 316.878 5.05566H267.525C266.297 5.05566 265.079 5.48667 264.236 6.57201C263.465 7.56521 263.235 8.82402 263.235 10.0274V136.162C263.235 137.342 263.471 138.583 264.248 139.564C265.09 140.627 266.3 141.056 267.525 141.056H316.878H317.435L317.911 140.768C318.436 140.452 318.915 140.117 319.288 139.76C319.476 139.581 319.686 139.35 319.859 139.067C320.028 138.792 320.235 138.349 320.235 137.783V115.952V115.34L319.893 114.833C319.579 114.369 319.233 113.91 318.853 113.549C318.525 113.237 317.846 112.68 316.878 112.68H292.27V87.0689H312.947H313.484L313.949 86.7996C314.444 86.513 314.929 86.1836 315.317 85.8009C315.652 85.4694 316.234 84.7851 316.234 83.7967V62.3146V61.766L315.954 61.2941C315.663 60.8035 315.329 60.3222 314.941 59.939C314.6 59.6027 313.919 59.0424 312.947 59.0424H292.27V33.4318H316.878Z" fill="white" stroke="black" stroke-width="4"/>
<path d="M325.87 5.05566H325.428L325.028 5.24152C322.985 6.18948 322.235 8.24727 322.235 10.309V28.5377C322.235 29.5171 322.353 30.5053 322.727 31.3527C323.129 32.2636 323.878 33.0958 325.052 33.3768L325.281 33.4318H325.517H338.977V136.793C338.977 137.871 339.265 139.026 340.147 139.901C341.027 140.774 342.182 141.056 343.258 141.056H363.564C364.64 141.056 365.795 140.774 366.675 139.901C367.557 139.026 367.845 137.871 367.845 136.793V33.4415H380.952H381.491L381.958 33.1704C382.451 32.8836 382.935 32.5538 383.321 32.1707C383.657 31.8381 384.235 31.1546 384.235 30.1693V8.40558V7.89037L383.986 7.43928C383.692 6.90652 383.357 6.39608 382.966 5.99243C382.617 5.63273 381.931 5.05566 380.942 5.05566H325.87Z" fill="white" stroke="black" stroke-width="4"/>
<path d="M86.8103 3.46017L86.7716 3.47163L86.7335 3.48463C80.6986 5.54153 76.0228 8.84966 72.8757 13.4764C69.7362 18.0918 68.2349 23.8469 68.2349 30.6039V115.507C68.2349 119.135 68.8261 122.671 69.9191 126.061L69.9234 126.074L69.9278 126.087C71.9093 131.954 75.157 136.499 79.7227 139.556C84.273 142.602 89.9618 144.056 96.6422 144.056H98.5125C106.308 144.056 112.535 142.598 116.842 139.275C124.694 134.733 128.235 125.114 128.235 111.688V34.4231V34.4206C128.225 26.755 127.431 20.914 125.467 17.2865C123.332 12.2507 119.939 8.40437 115.314 5.8394C110.692 3.27585 104.956 2.05566 98.23 2.05566C93.8898 2.05566 90.0908 2.48767 86.8103 3.46017ZM101.967 110.435C101.967 113.424 101.573 115.349 100.999 116.459C100.727 116.984 100.447 117.266 100.203 117.422C99.9684 117.573 99.6573 117.679 99.1943 117.679H97.6066C96.3873 117.679 95.7632 117.307 95.3683 116.79C94.8956 116.171 94.4926 115.001 94.4926 112.942V33.1696C94.4926 31.3328 94.9134 30.1914 95.4846 29.4932C96.0189 28.8403 96.8845 28.3308 98.337 28.1494C99.4924 28.1751 100.238 28.6235 100.809 29.5735C101.492 30.7116 101.967 32.6761 101.967 35.7353V110.435Z" fill="white" stroke="black" stroke-width="4"/>
<path d="M548.35 136.793V90.3223H548.587C551.356 90.3223 553.918 90.0998 556.356 89.6478L556.43 89.6341L556.503 89.6149C563.899 87.6602 569.637 84.2697 573.51 79.2986C577.386 74.3244 579.235 67.9741 579.235 60.4015V35.6757L579.235 35.6735C579.225 27.1402 577.647 20.4915 574.095 16.0736C570.201 8.40688 560.755 5.05566 547.32 5.05566H524.473C523.952 5.05566 523.255 5.11968 522.566 5.48516C521.835 5.87292 521.329 6.48186 520.995 7.18825C520.405 8.43386 520.235 10.2481 520.235 12.6301V88.3126V125.809V136.793C520.235 137.861 520.514 139.011 521.381 139.888C522.251 140.768 523.401 141.056 524.473 141.056H535.392H543.881H544.112C545.183 141.056 546.333 140.768 547.204 139.888C548.071 139.011 548.35 137.861 548.35 136.793ZM552.714 58.1484V58.6484C552.637 60.6183 552.097 61.8237 551.368 62.5552C550.581 63.3454 549.239 63.9176 546.964 63.9176H546.727V31.8099H549.548C550.667 31.8099 551.295 32.187 551.748 32.8723C552.295 33.7013 552.714 35.1984 552.714 37.6569V58.1484Z" fill="white" stroke="black" stroke-width="4"/>
<path d="M414.35 136.793V90.3223H414.587C417.356 90.3223 419.918 90.0998 422.356 89.6478L422.43 89.6341L422.503 89.6149C429.899 87.6602 435.637 84.2697 439.51 79.2986C443.386 74.3244 445.235 67.9741 445.235 60.4015V35.6757L445.235 35.6735C445.225 27.1368 443.636 20.4907 440.095 16.075C436.202 8.40726 426.756 5.05566 413.32 5.05566H390.473C389.952 5.05566 389.255 5.11968 388.566 5.48516C387.835 5.87292 387.329 6.48186 386.995 7.18825C386.405 8.43386 386.235 10.2481 386.235 12.6301V88.3126V125.809V136.793C386.235 137.861 386.514 139.011 387.381 139.888C388.251 140.768 389.401 141.056 390.473 141.056H401.392H409.881H410.112C411.183 141.056 412.333 140.768 413.204 139.888C414.071 139.011 414.35 137.861 414.35 136.793ZM418.714 58.1484V58.6484C418.637 60.6183 418.097 61.8237 417.368 62.5552C416.581 63.3454 415.239 63.9176 412.964 63.9176H412.727V31.8099H415.548C416.667 31.8099 417.295 32.187 417.748 32.8723C418.295 33.7013 418.714 35.1984 418.714 37.6569V58.1484Z" fill="white" stroke="black" stroke-width="4"/>
<path d="M473.824 133.074V146.007V167.06C473.824 171.004 477.055 174.234 480.998 174.234H484.463C488.406 174.234 491.637 171.004 491.637 167.06V146.007V133.074H473.824Z" fill="#FAB47B"/>
<mask id="mask0_1037_398" style="mask-type:luminance" maskUnits="userSpaceOnUse" x="473" y="133" width="19" height="42">
<path d="M473.824 133.074V146.007V167.06C473.824 171.004 477.055 174.234 480.998 174.234H484.463C488.406 174.234 491.637 171.004 491.637 167.06V146.007V133.074H473.824Z" fill="white"/>
</mask>
<g mask="url(#mask0_1037_398)">
<path d="M517.405 96.5898C510.348 94.3742 502.091 95.0867 496.059 98.4248C490.495 101.509 482.531 101.509 476.967 98.4248C470.945 95.0867 462.678 94.3644 455.621 96.5898L448.945 98.6981V135.368C448.945 140.121 454.547 143.957 461.477 143.957C461.477 143.957 464.074 143.889 465.86 144.035C467.714 144.182 469.481 144.816 470.974 145.783C472.76 146.944 474.312 148.252 476.684 148.252C480.871 148.252 482.697 144.279 486.757 144.279C490.817 144.279 494.155 145.353 494.155 152.332C494.155 154.635 492.291 158.998 492.437 160.862C492.623 163.185 494.38 163.976 495.737 163.976C498.186 163.976 499.348 162.59 499.348 160.121C499.348 158.051 497.22 154.879 497.22 152.332C497.22 149.296 497.825 147.559 498.626 146.271C499.514 144.836 501.241 143.967 503.086 143.967H511.529C518.449 143.967 524.061 140.131 524.061 135.378V98.6981L517.405 96.5898Z" fill="#E5853E"/>
</g>
<path d="M455.21 48.9368C458.296 47.8488 461.709 47.4505 465.072 47.7711C468.436 48.0917 471.611 49.1311 474.252 50.7631C476.646 52.2397 479.653 53.0557 482.73 53.0557C485.806 53.0557 488.814 52.2397 491.208 50.7631C493.849 49.1311 497.024 48.0917 500.388 47.7711C503.751 47.4505 507.164 47.8488 510.25 48.9368L516.235 51.0351V28.4299C516.235 15.5877 510.389 7.23338 498.765 3.36709C495.669 2.47338 491.999 2.05566 487.706 2.05566C487.162 2.05566 476.686 2.06538 476.152 2.07509C463.816 2.44424 455.685 7.12652 451.837 16.0734C450.076 19.182 449.235 24.5637 449.235 32.2282V51.0351L449.265 51.0254L455.21 48.9368Z" fill="#FF001D"/>
<path d="M510.249 49.3368C507.162 48.2454 503.749 47.8459 500.375 48.1675C497.002 48.4891 493.826 49.5317 491.184 51.1785C488.8 52.6597 485.802 53.4782 482.745 53.4782C479.688 53.4782 476.69 52.6597 474.305 51.1785C471.664 49.5317 468.488 48.4891 465.114 48.1675C461.74 47.8362 458.327 48.2454 455.24 49.3368L449.235 51.4611V95.0288L455.24 92.9045C458.317 91.8229 461.711 91.4233 465.065 91.7449C468.419 92.0665 471.575 93.0994 474.207 94.7365C476.611 96.2274 479.638 97.0557 482.735 97.0557C485.832 97.0557 488.859 96.2371 491.263 94.7365C493.895 93.1091 497.051 92.0762 500.405 91.7449C503.759 91.4233 507.162 91.8229 510.229 92.9045L516.235 95.0288V51.4611L510.249 49.3368Z" fill="#F7F9FC"/>
<path opacity="0.52" d="M456.239 29.2431C456.229 28.9568 456.239 28.6606 456.249 28.3743C456.316 26.1727 456.53 23.9809 456.927 21.8188C457.373 19.4296 458.07 17.0503 459.34 14.9968C460.9 12.4793 464.32 9.51749 467.508 10.1395C468.409 10.3172 469.281 11.0872 469.233 12.0251C469.175 13.2099 467.886 13.8318 466.888 14.4341C464.427 15.9248 462.886 18.6398 462.101 21.4437C461.316 24.2475 461.19 27.1896 460.909 30.0921C460.812 31.1189 460.599 32.3036 459.727 32.8268C458.739 33.4192 457.392 32.7874 456.801 31.7803C456.375 31.03 456.258 30.1316 456.239 29.2431Z" fill="white"/>
<path d="M510.271 92.3404C503.98 90.114 496.612 90.83 491.241 94.1843C486.276 97.2837 479.184 97.2837 474.219 94.1843C468.848 90.83 461.48 90.1042 455.189 92.3404L449.235 94.459V131.308C449.235 136.085 454.23 139.939 460.411 139.939C460.411 139.939 462.726 139.871 464.318 140.018C465.97 140.165 467.543 140.802 468.878 141.773C470.47 142.941 471.855 144.255 473.972 144.255C477.7 144.255 479.332 140.263 482.952 140.263C486.573 140.263 489.55 141.342 489.55 148.355C489.55 150.669 487.888 155.054 488.017 156.927C488.185 159.261 489.747 160.056 490.964 160.056C493.15 160.056 494.188 158.663 494.188 156.181C494.188 154.102 492.299 150.915 492.299 148.355C492.299 145.304 492.843 143.558 493.555 142.264C494.347 140.822 495.88 139.949 497.531 139.949H505.058C511.22 139.949 516.235 136.094 516.235 131.318V94.459L510.271 92.3404Z" fill="#00C4E6"/>
</svg>
