<svg width="585" height="177" viewBox="0 0 585 177" fill="none" xmlns="http://www.w3.org/2000/svg">
<path d="M65.9671 135.883C64.7923 130.712 57.8884 100.323 53.051 81.1365C60.4675 76.742 64.0946 69.0402 64.0946 58.3291V37.2953C64.0946 27.4835 62.4879 20.4076 59.0191 16.2292C54.9595 9.29532 46.0279 6.05566 32.7161 6.05566H9.50788C8.5972 6.05566 7.73015 6.29448 7.09837 6.93744C6.46963 7.57731 6.23486 8.45406 6.23486 9.38628V136.783C6.23486 137.693 6.47562 138.553 7.10617 139.181C7.73594 139.807 8.5973 140.046 9.50788 140.046H29.4578C30.3684 140.046 31.2297 139.807 31.8595 139.181C32.4901 138.553 32.7308 137.693 32.7308 136.783V101.685C33.4929 105.346 34.4445 109.906 35.4103 114.509C36.5055 119.729 37.6192 125.004 38.4959 129.086C38.9342 131.126 39.3136 132.87 39.6021 134.16C39.8822 135.413 40.0925 136.313 40.1863 136.594C40.2318 136.731 40.2782 136.876 40.3251 137.022C40.4116 137.293 40.4995 137.567 40.5848 137.799C40.7238 138.177 40.9035 138.585 41.1877 138.945C41.8296 139.759 42.772 140.056 44.0324 140.056H44.0456H44.0591H44.0729H44.0871H44.1016H44.1164H44.1316H44.1471H44.163H44.1791H44.1956H44.2125H44.2296H44.2471H44.2649H44.283H44.3015H44.3203H44.3393H44.3587H44.3785H44.3985H44.4188H44.4395H44.4605H44.4817H44.5033H44.5252H44.5474H44.5699H44.5926H44.6157H44.6391H44.6628H44.6868H44.711H44.7356H44.7604H44.7856H44.811H44.8367H44.8627H44.889H44.9155H44.9424H44.9695H44.9969H45.0246H45.0525H45.0807H45.1092H45.138H45.167H45.1963H45.2259H45.2557H45.2858H45.3161H45.3468H45.3776H45.4087H45.4401H45.4718H45.5037H45.5358H45.5682H45.6008H45.6337H45.6669H45.7002H45.7339H45.7677H45.8018H45.8362H45.8707H45.9055H45.9406H45.9759H46.0114H46.0471H46.0831H46.1193H46.1557H46.1923H46.2292H46.2663H46.3036H46.3411H46.3789H46.4168H46.455H46.4934H46.532H46.5708H46.6098H46.649H46.6884H46.7281H46.7679H46.8079H46.8482H46.8886H46.9292H46.9701H47.0111H47.0523H47.0937H47.1353H47.177H47.219H47.2612H47.3035H47.346H47.3887H47.4316H47.4746H47.5178H47.5612H47.6048H47.6486H47.6925H47.7366H47.7808H47.8253H47.8698H47.9146H47.9595H48.0046H48.0498H48.0952H48.1408H48.1865H48.2323H48.2783H48.3245H48.3708H48.4172H48.4638H48.5106H48.5575H48.6045H48.6517H48.699H48.7464H48.794H48.8417H48.8896H48.9376H48.9857H49.0339H49.0823H49.1308H49.1794H49.2281H49.277H49.326H49.3751H49.4243H49.4737H49.5231H49.5727H49.6223H49.6721H49.722H49.772H49.8221H49.8723H49.9227H49.9731H50.0236H50.0742H50.1249H50.1757H50.2266H50.2776H50.3287H50.3799H50.4312H50.4825H50.534H50.5855H50.6371H50.6888H50.7405H50.7924H50.8443H50.8963H50.9484H51.0005H51.0527H51.105H51.1574H51.2098H51.2623H51.3148H51.3674H51.4201H51.4728H51.5256H51.5785H51.6314H51.6843H51.7374H51.7904H51.8435H51.8967H51.9499H52.0031H52.0564H52.1098H52.1631H52.2166H52.27H52.3235H52.377H52.4306H52.4842H52.5378H52.5915H52.6452H52.6989H52.7526H52.8064H52.8601H52.9139H52.9678H53.0216H53.0754H53.1293H53.1832H53.2371H53.291H53.3449H53.3988H53.4528H53.5067H53.5606H53.6146H53.6685H53.7224H53.7764H53.8303H53.8842H53.9382H53.9921H54.046H54.0999H54.1538H54.2076H54.2615H54.3153H54.3691H54.4229H54.4767H54.5304H54.5842H54.6379H54.6916H54.7452H54.7988H54.8524H54.906H54.9595H55.013H55.0664H55.1198H55.1732H55.2265H55.2798H55.3331H55.3863H55.4394H55.4925H55.5456H55.5986H55.6515H55.7044H55.7573H55.81H55.8628H55.9154H55.968H56.0206H56.073H56.1255H56.1778H56.2301H56.2823H56.3344H56.3865H56.4384H56.4904H56.5422H56.5939H56.6456H56.6972H56.7487H56.8001H56.8515H56.9027H56.9539H57.005H57.0559H57.1068H57.1576H57.2083H57.2589H57.3094H57.3598H57.4101H57.4603H57.5104H57.5604H57.6103H57.66H57.7097H57.7592H57.8087H57.858H57.9072H57.9563H58.0052H58.0541H58.1028H58.1514H58.1999H58.2482H58.2964H58.3445H58.3925H58.4403H58.488H58.5356H58.583H58.6303H58.6774H58.7244H58.7713H58.818H58.8646H58.911H58.9573H59.0035H59.0494H59.0953H59.1409H59.1865H59.2318H59.277H59.3221H59.367H59.4117H59.4563H59.5006H59.5449H59.5889H59.6328H59.6765H59.7201H59.7635H59.8067H59.8497H59.8925H59.9352H59.9777H60.02H60.0621H60.104H60.1458H60.1873H60.2287H60.2699H60.3109H60.3516H60.3922H60.4326H60.4728H60.5128H60.5526H60.5922H60.6316H60.6708H60.7098H60.7486H60.7871H60.8255H60.8636H60.9015H60.9392H60.9767H61.014H61.051H61.0879H61.1245H61.1609H61.197H61.233H61.2687H61.3041H61.3394H61.3744H61.4091H61.4437H61.478H61.512H61.5459H61.5794H61.6128H61.6459H61.6787H61.7113H61.7437H61.7758H61.8076H61.8392H61.8706H61.9016H61.9325H61.963H61.9933H62.0234H62.0532H62.0827H62.1119H62.1409H62.1697H62.1981H62.2263H62.2542H62.2818H62.3091H62.3362H62.363H62.3895H62.4158H62.4417H62.4674H62.4927H62.5178H62.5426H62.5671H62.5914H62.6153H62.6389H62.6623H62.6853H62.708H62.7305H62.7526H62.7744H62.7959H62.8172H62.8381H62.8587H62.879H62.8989H62.9186H62.938H62.957H62.9757H62.9941H63.0122H63.0299H63.0474H63.0645H63.0812H63.0977H63.1138H63.1296H63.1451H63.1602H63.175H63.1894H63.2035H63.2173H63.2307H63.2438H63.2566H63.269H63.281H63.2927H63.3041H63.3151H63.3258H63.3361H63.346H63.3556H63.3648H63.3737H63.3822H63.3903H63.3981H63.4055H63.4126H63.4193H63.4256H63.4315H63.4371H63.4423H63.4471H63.4515H63.4556H63.4593H63.4626H63.4655H63.468H63.4702H63.4719H63.4733H63.4743H63.4749C63.475 140.056 63.4751 140.056 63.4751 139.056V140.056C64.2534 140.056 65.0945 139.827 65.6628 139.155C66.2456 138.466 66.3465 137.545 66.1278 136.589C66.1049 136.489 66.0504 136.249 65.9671 135.883ZM31.0919 63.8257V30.8083H34.9891C36.4615 30.8083 37.4425 31.312 38.1017 32.2484C38.806 33.2488 39.2376 34.8769 39.2376 37.2953V57.3386C39.2376 59.683 38.6273 61.2472 37.5804 62.2389C36.5233 63.2404 34.8456 63.8257 32.3552 63.8257H31.0919Z" fill="white" stroke="black" stroke-width="2"/>
<path d="M187.924 54.6239H188.208L188.45 54.4745C188.926 54.1805 189.321 53.8964 189.609 53.6201C189.753 53.4817 189.896 53.3214 190.009 53.1388C190.118 52.9604 190.235 52.7012 190.235 52.3845V34.585C190.235 24.6118 187.87 16.938 182.962 11.7587C178.045 6.56938 170.739 4.05566 161.235 4.05566C157.226 4.05566 153.403 4.47241 149.854 5.3955L149.812 5.40643L149.771 5.42096C143.979 7.47773 139.571 10.6439 136.619 14.965C133.671 19.2824 132.235 24.667 132.235 31.0621V116.049C132.235 120.39 133.094 124.663 134.879 128.791L134.884 128.802L134.89 128.814C137.079 133.543 140.312 137.124 144.588 139.512C148.853 141.894 154.096 143.056 160.267 143.056H161.861C171.16 143.056 178.313 140.538 183.125 135.344C187.924 130.165 190.235 122.494 190.235 112.526V94.8049V94.5197L190.084 94.2774C189.791 93.8052 189.501 93.4021 189.205 93.1065C188.931 92.8325 188.498 92.4972 187.924 92.4972H166.633H166.33L166.077 92.6661C165.643 92.957 165.262 93.2457 164.98 93.5381C164.722 93.806 164.391 94.2362 164.391 94.8049V110.321C164.391 112.925 164.065 114.724 163.518 115.838C163.251 116.381 162.95 116.725 162.642 116.935C162.341 117.14 161.979 117.255 161.518 117.255H160.893C159.906 117.255 159.288 116.907 158.865 116.264C158.392 115.547 158.088 114.348 158.088 112.526V34.585C158.088 32.758 158.376 31.546 158.822 30.8206C159.219 30.1738 159.77 29.8567 160.619 29.8567H161.518C161.979 29.8567 162.341 29.9715 162.642 30.1764C162.95 30.3862 163.251 30.7303 163.518 31.2735C164.065 32.3871 164.391 34.1866 164.391 36.7904V52.3845V52.6526L164.525 52.8848C164.787 53.3368 165.063 53.7311 165.359 54.0252C165.634 54.2972 166.067 54.6239 166.633 54.6239H187.924Z" fill="white" stroke="black" stroke-width="2"/>
<path d="M261.179 9.71701L261.235 9.55643V9.38628C261.235 8.45313 260.999 7.57587 260.368 6.93611C259.735 6.29394 258.866 6.05566 257.953 6.05566H235.207C234.544 6.05566 233.97 6.23949 233.503 6.49468C233.382 6.54885 233.294 6.61557 233.243 6.6586C233.136 6.75006 233.065 6.84606 233.026 6.90329C232.946 7.02103 232.886 7.14846 232.843 7.24668C232.753 7.45461 232.657 7.73056 232.558 8.04619C232.356 8.68705 232.101 9.61452 231.794 10.7793C231.463 12.0349 231.065 13.5951 230.603 15.4091C230.207 16.9596 229.765 18.6955 229.276 20.5851C227.451 27.6487 224.965 36.938 221.822 47.0823V8.40548V8.15218L221.702 7.92943C221.431 7.42927 221.147 7.00456 220.842 6.69141C220.555 6.3971 220.115 6.06538 219.54 6.06538H198.516C197.528 6.06538 196.635 6.40566 196.023 7.1964C195.447 7.94043 195.235 8.94063 195.235 10.0369V136.162C195.235 137.227 195.45 138.209 196.029 138.942C196.64 139.717 197.529 140.056 198.516 140.056V139.056C198.516 140.056 198.516 140.056 198.517 140.056H198.517H198.518H198.52H198.521H198.523H198.526H198.529H198.532H198.536H198.54H198.545H198.549H198.555H198.56H198.566H198.573H198.579H198.586H198.594H198.602H198.61H198.619H198.627H198.637H198.646H198.656H198.667H198.678H198.689H198.7H198.712H198.724H198.737H198.749H198.763H198.776H198.79H198.804H198.819H198.834H198.849H198.864H198.88H198.897H198.913H198.93H198.947H198.965H198.983H199.001H199.019H199.038H199.057H199.077H199.097H199.117H199.137H199.158H199.179H199.2H199.222H199.244H199.266H199.289H199.312H199.335H199.358H199.382H199.406H199.431H199.455H199.48H199.506H199.531H199.557H199.583H199.609H199.636H199.663H199.69H199.718H199.746H199.774H199.802H199.831H199.86H199.889H199.918H199.948H199.978H200.008H200.038H200.069H200.1H200.131H200.163H200.195H200.227H200.259H200.292H200.324H200.357H200.391H200.424H200.458H200.492H200.526H200.561H200.595H200.63H200.665H200.701H200.737H200.772H200.808H200.845H200.881H200.918H200.955H200.992H201.03H201.067H201.105H201.143H201.182H201.22H201.259H201.298H201.337H201.376H201.416H201.456H201.496H201.536H201.576H201.617H201.658H201.699H201.74H201.781H201.823H201.864H201.906H201.948H201.991H202.033H202.076H202.118H202.161H202.205H202.248H202.291H202.335H202.379H202.423H202.467H202.512H202.556H202.601H202.646H202.691H202.736H202.781H202.827H202.872H202.918H202.964H203.01H203.056H203.103H203.149H203.196H203.243H203.29H203.337H203.384H203.432H203.479H203.527H203.575H203.623H203.671H203.719H203.767H203.816H203.864H203.913H203.962H204.01H204.06H204.109H204.158H204.207H204.257H204.306H204.356H204.406H204.456H204.506H204.556H204.606H204.657H204.707H204.758H204.808H204.859H204.91H204.961H205.012H205.063H205.114H205.165H205.217H205.268H205.319H205.371H205.423H205.474H205.526H205.578H205.63H205.682H205.734H205.786H205.839H205.891H205.943H205.996H206.048H206.101H206.153H206.206H206.259H206.312H206.364H206.417H206.47H206.523H206.576H206.629H206.682H206.736H206.789H206.842H206.895H206.948H207.002H207.055H207.109H207.162H207.215H207.269H207.322H207.376H207.429H207.483H207.537H207.59H207.644H207.697H207.751H207.805H207.858H207.912H207.966H208.02H208.073H208.127H208.181H208.234H208.288H208.342H208.395H208.449H208.503H208.557H208.61H208.664H208.718H208.771H208.825H208.878H208.932H208.985H209.039H209.093H209.146H209.199H209.253H209.306H209.36H209.413H209.466H209.52H209.573H209.626H209.679H209.732H209.785H209.838H209.891H209.944H209.997H210.05H210.103H210.156H210.208H210.261H210.313H210.366H210.418H210.471H210.523H210.575H210.628H210.68H210.732H210.784H210.836H210.887H210.939H210.991H211.043H211.094H211.146H211.197H211.248H211.299H211.351H211.402H211.452H211.503H211.554H211.605H211.655H211.706H211.756H211.806H211.857H211.907H211.957H212.006H212.056H212.106H212.155H212.205H212.254H212.303H212.352H212.401H212.45H212.499H212.548H212.596H212.644H212.693H212.741H212.789H212.836H212.884H212.932H212.979H213.026H213.074H213.121H213.167H213.214H213.261H213.307H213.354H213.4H213.446H213.492H213.537H213.583H213.628H213.673H213.718H213.763H213.808H213.853H213.897H213.941H213.985H214.029H214.073H214.117H214.16H214.203H214.246H214.289H214.332H214.374H214.417H214.459H214.501H214.543H214.584H214.626H214.667H214.708H214.749H214.789H214.83H214.87H214.91H214.95H214.99H215.029H215.068H215.107H215.146H215.185H215.223H215.261H215.299H215.337H215.374H215.412H215.449H215.486H215.522H215.559H215.595H215.631H215.666H215.702H215.737H215.772H215.807H215.842H215.876H215.91H215.944H215.977H216.011H216.044H216.077H216.109H216.142H216.174H216.206H216.237H216.268H216.3H216.33H216.361H216.391H216.421H216.451H216.481H216.51H216.539H216.568H216.596H216.624H216.652H216.68H216.707H216.734H216.761H216.787H216.813H216.839H216.865H216.89H216.915H216.94H216.965H216.989H217.013H217.036H217.06H217.083H217.105H217.128H217.15H217.171H217.193H217.214H217.235H217.255H217.276H217.296H217.315H217.334H217.353H217.372H217.39H217.408H217.426H217.443H217.46H217.477H217.493H217.509H217.525H217.54H217.555H217.57H217.584H217.598H217.612H217.625H217.638H217.651H217.663H217.675H217.686H217.698H217.709C218.638 140.056 219.727 139.964 220.565 139.3C221.459 138.592 221.813 137.455 221.813 135.997V135.981V135.964V135.946V135.928V135.909V135.889V135.868V135.846V135.824V135.8V135.776V135.751V135.725V135.699V135.671V135.643V135.614V135.584V135.553V135.522V135.49V135.457V135.423V135.389V135.354V135.318V135.281V135.243V135.205V135.166V135.126V135.086V135.045V135.003V134.96V134.917V134.872V134.828V134.782V134.736V134.689V134.641V134.593V134.543V134.494V134.443V134.392V134.34V134.287V134.234V134.18V134.126V134.07V134.014V133.958V133.901V133.843V133.784V133.725V133.665V133.604V133.543V133.482V133.419V133.356V133.292V133.228V133.163V133.098V133.032V132.965V132.897V132.829V132.761V132.692V132.622V132.552V132.481V132.409V132.337V132.265V132.191V132.118V132.043V131.968V131.893V131.817V131.74V131.663V131.586V131.507V131.429V131.35V131.27V131.189V131.109V131.027V130.945V130.863V130.78V130.697V130.613V130.528V130.444V130.358V130.272V130.186V130.099V130.012V129.924V129.836V129.747V129.658V129.568V129.478V129.388V129.297V129.205V129.113V129.021V128.928V128.835V128.741V128.647V128.553V128.458V128.363V128.267V128.171V128.074V127.977V127.88V127.782V127.684V127.586V127.487V127.387V127.288V127.188V127.087V126.986V126.885V126.784V126.682V126.58V126.477V126.374V126.271V126.167V126.063V125.959V125.855V125.75V125.644V125.539V125.433V125.327V125.22V125.113V125.006V124.899V124.791V124.683V124.575V124.466V124.358V124.248V124.139V124.029V123.919V123.809V123.699V123.588V123.477V123.366V123.254V123.142V123.03V122.918V122.806V122.693V122.58V122.467V122.354V122.24V122.126V122.012V121.898V121.784V121.669V121.554V121.44V121.324V121.209V121.093V120.978V120.862V120.746V120.63V120.513V120.397V120.28V120.163V120.046V119.929V119.811V119.694V119.576V119.459V119.341V119.223V119.105V118.986V118.868V118.75V118.631V118.512V118.393V118.275V118.156V118.037V117.917V117.798V117.679V117.559V117.44V117.32V117.201V117.081V116.961V116.841V116.721V116.601V116.482V116.361V116.241V116.121V116.001V115.881V115.761V115.641V115.52V115.4V115.28V115.159V115.039V114.919V114.799V114.678V114.558V114.438V114.317V114.197V114.077V113.957V113.837V113.716V113.596V113.476V113.356V113.236V113.116V112.996V112.876V112.757V112.637V112.517V112.398V112.278V112.159V112.039V111.92V111.801V111.682V111.563V111.444V111.325V111.206V111.087V110.969V110.851V110.732V110.614V110.496V110.378V110.26V110.143V110.025V109.908V109.791V109.674V109.557V109.44V109.323V109.207V109.09V108.974V108.858V108.743V108.627V108.511V108.396V108.281V108.166V108.052V107.937V107.823V107.709V107.595V107.481V107.368V107.255V107.142V107.029V106.916V106.804V106.692V106.58V106.469V106.357V106.246V106.135V106.025V105.914V105.804V105.695V105.585V105.476V105.367V105.258V105.15V105.042V104.934V104.826V104.719V104.612V104.506V104.399V104.293V104.188V104.082V103.977V103.872V103.768V103.664V103.56V103.457V103.354V103.251V103.149V103.047V102.945V102.844V102.743V102.642V102.542V102.442V102.343V102.244V102.145V102.047V101.949V101.852V101.755V101.658V101.562V101.466V101.37V101.275V101.181V101.086V100.993V100.899V100.806V100.714V100.622V100.53V100.439V100.348V100.258V100.168V100.079V99.9898V99.9014V99.8134V99.7259V99.6389V99.5524V99.4664V99.3808V99.2957V99.2389C225.713 112.54 229.579 128.67 230.889 134.134C231.062 134.856 231.19 135.392 231.268 135.71L231.269 135.711C231.638 137.215 232.07 138.447 233.069 139.199C234.054 139.94 235.381 140.056 236.989 140.056H257.944C258.861 140.056 259.838 139.789 260.489 139.029C261.165 138.24 261.284 137.164 260.976 136.003C260.722 135.041 256.242 118.158 251.826 101.517L245.785 78.7541L243.806 71.2958L243.253 69.2102L243.129 68.745L243.217 68.4509C243.326 68.0824 243.488 67.5408 243.694 66.848C244.107 65.4625 244.701 63.4728 245.424 61.0559C246.869 56.2221 248.83 49.68 250.894 42.8465C255.025 29.1645 259.553 14.3567 261.179 9.71701Z" fill="white" stroke="black" stroke-width="2"/>
<path d="M316.878 32.4318H317.127L317.347 32.3152C317.852 32.0472 318.281 31.7664 318.598 31.4641C318.893 31.1817 319.235 30.7416 319.235 30.1595V8.39586V8.11183L319.086 7.8702C318.784 7.38187 318.484 6.96861 318.176 6.6665C317.89 6.38464 317.451 6.05566 316.878 6.05566H267.525C266.535 6.05566 265.64 6.39499 265.026 7.1853C264.448 7.92955 264.235 8.93043 264.235 10.0274V136.162C264.235 137.227 264.451 138.21 265.032 138.943C265.645 139.718 266.537 140.056 267.525 140.056H316.878H317.157L317.395 139.912C317.891 139.613 318.3 139.322 318.598 139.037C318.747 138.894 318.893 138.73 319.007 138.544C319.118 138.363 319.235 138.101 319.235 137.783V115.952V115.646L319.064 115.392C318.765 114.949 318.466 114.561 318.164 114.274C317.889 114.012 317.45 113.68 316.878 113.68H291.27V86.0689H312.947H313.215L313.448 85.9342C313.909 85.6671 314.313 85.3871 314.614 85.0895C314.889 84.8176 315.234 84.3783 315.234 83.7967V62.3146V62.0403L315.094 61.8044C314.823 61.3478 314.539 60.9482 314.238 60.6503C313.96 60.376 313.521 60.0424 312.947 60.0424H291.27V32.4318H316.878Z" fill="white" stroke="black" stroke-width="2"/>
<path d="M325.87 6.05566H325.649L325.449 6.14859C323.894 6.87022 323.235 8.46239 323.235 10.309V28.5377C323.235 29.4523 323.348 30.2826 323.642 30.9491C323.95 31.6474 324.485 32.2128 325.285 32.4043L325.399 32.4318H325.517H339.977V136.793C339.977 137.703 340.219 138.564 340.852 139.191C341.483 139.818 342.346 140.056 343.258 140.056H363.564C364.476 140.056 365.339 139.818 365.971 139.191C366.603 138.564 366.845 137.703 366.845 136.793V32.4415H380.952H381.222L381.455 32.306C381.915 32.0387 382.317 31.7585 382.617 31.4607C382.892 31.1882 383.235 30.7494 383.235 30.1693V8.40558V8.14797L383.11 7.92243C382.836 7.4254 382.551 7.00144 382.248 6.68854C381.966 6.39761 381.525 6.05566 380.942 6.05566H325.87Z" fill="white" stroke="black" stroke-width="2"/>
<path d="M87.0945 4.41893L87.0752 4.42466L87.0561 4.43116C81.187 6.43154 76.7062 9.62308 73.7025 14.0388C70.7027 18.4489 69.2349 23.9938 69.2349 30.6039V115.507C69.2349 119.025 69.8081 122.458 70.8709 125.754L70.8708 125.754L70.8752 125.767C72.7987 131.462 75.9262 135.811 80.279 138.725C84.6241 141.633 90.1046 143.056 96.6422 143.056H98.5125C106.247 143.056 112.23 141.598 116.283 138.442C123.703 134.188 127.235 125.034 127.235 111.688V34.4231V34.4218C127.225 26.7327 126.414 21.1034 124.565 17.7213C122.514 12.8585 119.262 9.1727 114.829 6.7139C110.397 4.25577 104.842 3.05566 98.23 3.05566C93.951 3.05566 90.2543 3.48221 87.0945 4.41893ZM102.967 110.435C102.967 113.477 102.572 115.595 101.887 116.918C101.553 117.565 101.164 117.994 100.744 118.264C100.328 118.531 99.8239 118.679 99.1943 118.679H97.6066C96.1495 118.679 95.1982 118.215 94.5734 117.397C93.9096 116.527 93.4926 115.1 93.4926 112.942V33.1696C93.4926 31.1912 93.9453 29.7954 94.7107 28.86C95.4562 27.9488 96.6046 27.3449 98.2845 27.1485C99.8138 27.1628 100.901 27.7855 101.666 29.0587C102.488 30.4264 102.967 32.607 102.967 35.7353V110.435Z" fill="white" stroke="black" stroke-width="2"/>
<path d="M547.35 136.793V89.3223H548.587C551.302 89.3223 553.802 89.1042 556.174 88.6646L556.211 88.6577L556.247 88.6481C563.492 86.7336 569.016 83.4396 572.721 78.6839C576.428 73.9268 578.235 67.8102 578.235 60.4015V35.6757L578.235 35.6746C578.225 27.1721 576.635 20.7725 573.25 16.6193C569.659 9.42846 560.741 6.05566 547.32 6.05566H524.473C524.028 6.05566 523.518 6.11195 523.034 6.36859C522.53 6.63637 522.16 7.06436 521.899 7.61603C521.416 8.6358 521.235 10.2397 521.235 12.6301V88.3126V125.809V136.793C521.235 137.698 521.47 138.556 522.092 139.185C522.715 139.815 523.569 140.056 524.473 140.056H535.392H543.881H544.112C545.015 140.056 545.87 139.815 546.493 139.185C547.114 138.556 547.35 137.698 547.35 136.793ZM553.714 58.1484V58.6664C553.633 60.8088 553.042 62.2926 552.077 63.261C551.037 64.305 549.396 64.9176 546.964 64.9176H545.727V30.8099H549.548C550.964 30.8099 551.924 31.325 552.582 32.3214C553.287 33.3896 553.714 35.119 553.714 37.6569V58.1484Z" fill="white" stroke="black" stroke-width="2"/>
<path d="M413.35 136.793V89.3223H414.587C417.302 89.3223 419.802 89.1042 422.174 88.6646L422.211 88.6577L422.247 88.6481C429.491 86.7336 435.016 83.4396 438.721 78.6839C442.428 73.9268 444.235 67.8102 444.235 60.4015V35.6757V35.6746C444.225 27.1703 442.625 20.7722 439.25 16.62C435.66 9.42867 426.741 6.05566 413.32 6.05566H390.473C390.028 6.05566 389.518 6.11195 389.034 6.36859C388.53 6.63637 388.16 7.06436 387.899 7.61603C387.416 8.6358 387.235 10.2397 387.235 12.6301V88.3126V125.809V136.793C387.235 137.698 387.47 138.556 388.092 139.185C388.715 139.815 389.569 140.056 390.473 140.056H401.392H409.881H410.112C411.015 140.056 411.87 139.815 412.493 139.185C413.114 138.556 413.35 137.698 413.35 136.793ZM419.714 58.1484V58.6664C419.633 60.8088 419.042 62.2926 418.077 63.261C417.037 64.305 415.396 64.9176 412.964 64.9176H411.727V30.8099H415.548C416.964 30.8099 417.924 31.325 418.582 32.3214C419.287 33.3896 419.714 35.119 419.714 37.6569V58.1484Z" fill="white" stroke="black" stroke-width="2"/>
<path d="M473.824 133.074V146.007V167.06C473.824 171.004 477.055 174.234 480.998 174.234H484.463C488.406 174.234 491.637 171.004 491.637 167.06V146.007V133.074H473.824Z" fill="#FAB47B"/>
<mask id="mask0_1037_398" style="mask-type:luminance" maskUnits="userSpaceOnUse" x="473" y="133" width="19" height="42">
<path d="M473.824 133.074V146.007V167.06C473.824 171.004 477.055 174.234 480.998 174.234H484.463C488.406 174.234 491.637 171.004 491.637 167.06V146.007V133.074H473.824Z" fill="white"/>
</mask>
<g mask="url(#mask0_1037_398)">
<path d="M517.405 96.5898C510.348 94.3742 502.091 95.0867 496.059 98.4248C490.495 101.509 482.531 101.509 476.967 98.4248C470.945 95.0867 462.678 94.3644 455.621 96.5898L448.945 98.6981V135.368C448.945 140.121 454.547 143.957 461.477 143.957C461.477 143.957 464.074 143.889 465.86 144.035C467.714 144.182 469.481 144.816 470.974 145.783C472.76 146.944 474.312 148.252 476.684 148.252C480.871 148.252 482.697 144.279 486.757 144.279C490.817 144.279 494.155 145.353 494.155 152.332C494.155 154.635 492.291 158.998 492.437 160.862C492.623 163.185 494.38 163.976 495.737 163.976C498.186 163.976 499.348 162.59 499.348 160.121C499.348 158.051 497.22 154.879 497.22 152.332C497.22 149.296 497.825 147.559 498.626 146.271C499.514 144.836 501.241 143.967 503.086 143.967H511.529C518.449 143.967 524.061 140.131 524.061 135.378V98.6981L517.405 96.5898Z" fill="#E5853E"/>
</g>
<path d="M455.21 48.9368C458.296 47.8488 461.709 47.4505 465.072 47.7711C468.436 48.0917 471.611 49.1311 474.252 50.7631C476.646 52.2397 479.653 53.0557 482.73 53.0557C485.806 53.0557 488.814 52.2397 491.208 50.7631C493.849 49.1311 497.024 48.0917 500.388 47.7711C503.751 47.4505 507.164 47.8488 510.25 48.9368L516.235 51.0351V28.4299C516.235 15.5877 510.389 7.23338 498.765 3.36709C495.669 2.47338 491.999 2.05566 487.706 2.05566C487.162 2.05566 476.686 2.06538 476.152 2.07509C463.816 2.44424 455.685 7.12652 451.837 16.0734C450.076 19.182 449.235 24.5637 449.235 32.2282V51.0351L449.265 51.0254L455.21 48.9368Z" fill="#FF001D"/>
<path d="M510.249 49.3368C507.162 48.2454 503.749 47.8459 500.375 48.1675C497.002 48.4891 493.826 49.5317 491.184 51.1785C488.8 52.6597 485.802 53.4782 482.745 53.4782C479.688 53.4782 476.69 52.6597 474.305 51.1785C471.664 49.5317 468.488 48.4891 465.114 48.1675C461.74 47.8362 458.327 48.2454 455.24 49.3368L449.235 51.4611V95.0288L455.24 92.9045C458.317 91.8229 461.711 91.4233 465.065 91.7449C468.419 92.0665 471.575 93.0994 474.207 94.7365C476.611 96.2274 479.638 97.0557 482.735 97.0557C485.832 97.0557 488.859 96.2371 491.263 94.7365C493.895 93.1091 497.051 92.0762 500.405 91.7449C503.759 91.4233 507.162 91.8229 510.229 92.9045L516.235 95.0288V51.4611L510.249 49.3368Z" fill="#F7F9FC"/>
<path opacity="0.52" d="M456.239 29.2431C456.229 28.9568 456.239 28.6606 456.249 28.3743C456.316 26.1727 456.53 23.9809 456.927 21.8188C457.373 19.4296 458.07 17.0503 459.34 14.9968C460.9 12.4793 464.32 9.51749 467.508 10.1395C468.409 10.3172 469.281 11.0872 469.233 12.0251C469.175 13.2099 467.886 13.8318 466.888 14.4341C464.427 15.9248 462.886 18.6398 462.101 21.4437C461.316 24.2475 461.19 27.1896 460.909 30.0921C460.812 31.1189 460.599 32.3036 459.727 32.8268C458.739 33.4192 457.392 32.7874 456.801 31.7803C456.375 31.03 456.258 30.1316 456.239 29.2431Z" fill="white"/>
<path d="M510.271 92.3404C503.98 90.114 496.612 90.83 491.241 94.1843C486.276 97.2837 479.184 97.2837 474.219 94.1843C468.848 90.83 461.48 90.1042 455.189 92.3404L449.235 94.459V131.308C449.235 136.085 454.23 139.939 460.411 139.939C460.411 139.939 462.726 139.871 464.318 140.018C465.97 140.165 467.543 140.802 468.878 141.773C470.47 142.941 471.855 144.255 473.972 144.255C477.7 144.255 479.332 140.263 482.952 140.263C486.573 140.263 489.55 141.342 489.55 148.355C489.55 150.669 487.888 155.054 488.017 156.927C488.185 159.261 489.747 160.056 490.964 160.056C493.15 160.056 494.188 158.663 494.188 156.181C494.188 154.102 492.299 150.915 492.299 148.355C492.299 145.304 492.843 143.558 493.555 142.264C494.347 140.822 495.88 139.949 497.531 139.949H505.058C511.22 139.949 516.235 136.094 516.235 131.318V94.459L510.271 92.3404Z" fill="#00C4E6"/>
</svg>
